<svg xmlns="http://www.w3.org/2000/svg" width="66" height="66" viewBox="0 0 66 66"><g><g><path fill="#e6e6e6" d="M33 0c18.226 0 33 14.774 33 33 0 18.225-14.774 33-33 33S0 51.225 0 33C0 14.774 14.773 0 33 0z"/></g><g><path fill="#fff" d="M49.001 49h-2.5c0-7.444-6.057-13.5-13.5-13.5C25.556 35.5 19.5 41.556 19.5 49H17c0-4.274 1.665-8.292 4.686-11.314a15.945 15.945 0 0 1 6.08-3.814 9.246 9.246 0 0 1-4.016-7.622c0-5.1 4.15-9.25 9.25-9.25s9.25 4.15 9.25 9.25a9.244 9.244 0 0 1-4.017 7.622 15.937 15.937 0 0 1 6.08 3.814A15.89 15.89 0 0 1 49.002 49zm-9.25-22.75A6.757 6.757 0 0 0 33 19.5a6.757 6.757 0 0 0-6.75 6.75A6.758 6.758 0 0 0 33 33a6.757 6.757 0 0 0 6.75-6.75z"/></g></g></svg>