<svg id="SVGDoc" width="65" height="83" xmlns="http://www.w3.org/2000/svg" version="1.1" xmlns:xlink="http://www.w3.org/1999/xlink" xmlns:avocode="https://avocode.com/" viewBox="0 0 65 83"><defs><mask id="Mask1077" x="-1" y="-1" width="2" height="2"><rect width="47" height="65" x="9" y="9" fill="#ffffff"></rect><path d="M19.86064,27.6011c-1.94618,0.31932 -3.80722,0.95987 -5.58563,1.90413v-2.0866c0,-10.14538 8.1625,-18.39839 18.19233,-18.39839c10.02949,0 18.19839,8.25301 18.19839,18.39839v2.0866c-1.77589,-0.94258 -3.63602,-1.58482 -5.58609,-1.90413v-0.18247c0,-7.02448 -5.66654,-12.73856 -12.6091,-12.73856c-6.94187,0 -12.6099,5.71528 -12.6099,12.73856zM51.9445,55.42677c-0.26665,0.26458 -13.03997,13.13039 -17.74521,17.86443c-0.47436,0.47705 -1.09451,0.7157 -1.7165,0.7157c-0.62199,0 -1.24317,-0.23865 -1.71616,-0.7157c-4.7049,-4.73621 -17.47993,-17.59985 -17.74658,-17.86443c-5.38376,-5.44687 -5.38376,-14.28209 0,-19.72655c2.69405,-2.72403 6.22261,-4.08509 9.75185,-4.08509c3.51173,0 7.02278,1.35049 9.70985,4.04547c2.6881,-2.69498 6.19926,-4.04547 9.71088,-4.04547c3.52638,0 7.05574,1.36106 9.75082,4.08509c5.38353,5.44446 5.38353,14.27968 0.00103,19.72655zM36.60094,54.13918c0,-2.30988 -1.83598,-4.18016 -4.11816,-4.18016c-2.28321,0 -4.1312,1.87028 -4.1312,4.18016c0,1.211 0.47997,2.30268 1.32523,3.06448v4.0097c0,1.57305 1.24203,2.84576 2.79373,2.84576c1.55056,0 2.79373,-1.27414 2.79373,-2.84576v-4.0097c0.84572,-0.76396 1.33507,-1.85348 1.33667,-3.06448z" fill="#000000"></path></mask><filter id="Filter1081" width="81.2" height="103" x="-8.2" y="-8" filterUnits="userSpaceOnUse"><feOffset dx="-0.2" dy="4" result="FeOffset1082Out" in="SourceGraphic"></feOffset><feGaussianBlur stdDeviation="2.8 2.8" result="FeGaussianBlur1083Out" in="FeOffset1082Out"></feGaussianBlur></filter><clipPath id="ClipPath1087"><path d="M4.03727,83v-83h56.92545v83zM19.86064,27.41863c0,-7.02328 5.66803,-12.73856 12.6099,-12.73856c6.94256,0 12.6091,5.71408 12.6091,12.73856v0.18247c1.95007,0.31931 3.8102,0.96155 5.58609,1.90413v-2.0866c0,-10.14538 -8.1689,-18.39839 -18.19839,-18.39839c-10.02983,0 -18.19233,8.25301 -18.19233,18.39839v2.0866c1.77841,-0.94426 3.63945,-1.58481 5.58563,-1.90413zM51.94448,55.42677c5.3825,-5.44687 5.3825,-14.28209 -0.00103,-19.72655c-2.69508,-2.72403 -6.22444,-4.08509 -9.75082,-4.08509c-3.51162,0 -7.02278,1.35049 -9.71088,4.04547c-2.68707,-2.69498 -6.19812,-4.04547 -9.70985,-4.04547c-3.52924,0 -7.0578,1.36106 -9.75185,4.08509c-5.38376,5.44446 -5.38376,14.27968 0,19.72655c0.26665,0.26458 13.04168,13.12822 17.74658,17.86443c0.47299,0.47705 1.09417,0.7157 1.71616,0.7157c0.62199,0 1.24214,-0.23865 1.7165,-0.7157c4.70524,-4.73404 17.47856,-17.59985 17.74521,-17.86443zM35.26427,57.20366v4.0097c0,1.57162 -1.24317,2.84576 -2.79373,2.84576c-1.5517,0 -2.79373,-1.27271 -2.79373,-2.84576v-4.0097c-0.84526,-0.7618 -1.32523,-1.85348 -1.32523,-3.06448c0,-2.30988 1.84799,-4.18016 4.1312,-4.18016c2.28218,0 4.11816,1.87028 4.11816,4.18016c-0.0016,1.211 -0.49095,2.30052 -1.33667,3.06448z" fill="#ffffff"></path></clipPath></defs><desc>Generated with Avocode.</desc><g><g><title>Shape 25</title><g filter="url(#Filter1081)"><path d="M19.86064,27.6011c-1.94618,0.31932 -3.80722,0.95987 -5.58563,1.90413v-2.0866c0,-10.14538 8.1625,-18.39839 18.19233,-18.39839c10.02949,0 18.19839,8.25301 18.19839,18.39839v2.0866c-1.77589,-0.94258 -3.63602,-1.58482 -5.58609,-1.90413v-0.18247c0,-7.02448 -5.66654,-12.73856 -12.6091,-12.73856c-6.94187,0 -12.6099,5.71528 -12.6099,12.73856zM51.9445,55.42677c-0.26665,0.26458 -13.03997,13.13039 -17.74521,17.86443c-0.47436,0.47705 -1.09451,0.7157 -1.7165,0.7157c-0.62199,0 -1.24317,-0.23865 -1.71616,-0.7157c-4.7049,-4.73621 -17.47993,-17.59985 -17.74658,-17.86443c-5.38376,-5.44687 -5.38376,-14.28209 0,-19.72655c2.69405,-2.72403 6.22261,-4.08509 9.75185,-4.08509c3.51173,0 7.02278,1.35049 9.70985,4.04547c2.6881,-2.69498 6.19926,-4.04547 9.71088,-4.04547c3.52638,0 7.05574,1.36106 9.75082,4.08509c5.38353,5.44446 5.38353,14.27968 0.00103,19.72655zM36.60094,54.13918c0,-2.30988 -1.83598,-4.18016 -4.11816,-4.18016c-2.28321,0 -4.1312,1.87028 -4.1312,4.18016c0,1.211 0.47997,2.30268 1.32523,3.06448v4.0097c0,1.57305 1.24203,2.84576 2.79373,2.84576c1.55056,0 2.79373,-1.27414 2.79373,-2.84576v-4.0097c0.84572,-0.76396 1.33507,-1.85348 1.33667,-3.06448z" fill="none" stroke-opacity="0.2" stroke-width="0" mask="url(&quot;#Mask1077&quot;)"></path><path d="M19.86064,27.6011c-1.94618,0.31932 -3.80722,0.95987 -5.58563,1.90413v-2.0866c0,-10.14538 8.1625,-18.39839 18.19233,-18.39839c10.02949,0 18.19839,8.25301 18.19839,18.39839v2.0866c-1.77589,-0.94258 -3.63602,-1.58482 -5.58609,-1.90413v-0.18247c0,-7.02448 -5.66654,-12.73856 -12.6091,-12.73856c-6.94187,0 -12.6099,5.71528 -12.6099,12.73856zM51.9445,55.42677c-0.26665,0.26458 -13.03997,13.13039 -17.74521,17.86443c-0.47436,0.47705 -1.09451,0.7157 -1.7165,0.7157c-0.62199,0 -1.24317,-0.23865 -1.71616,-0.7157c-4.7049,-4.73621 -17.47993,-17.59985 -17.74658,-17.86443c-5.38376,-5.44687 -5.38376,-14.28209 0,-19.72655c2.69405,-2.72403 6.22261,-4.08509 9.75185,-4.08509c3.51173,0 7.02278,1.35049 9.70985,4.04547c2.6881,-2.69498 6.19926,-4.04547 9.71088,-4.04547c3.52638,0 7.05574,1.36106 9.75082,4.08509c5.38353,5.44446 5.38353,14.27968 0.00103,19.72655zM36.60094,54.13918c0,-2.30988 -1.83598,-4.18016 -4.11816,-4.18016c-2.28321,0 -4.1312,1.87028 -4.1312,4.18016c0,1.211 0.47997,2.30268 1.32523,3.06448v4.0097c0,1.57305 1.24203,2.84576 2.79373,2.84576c1.55056,0 2.79373,-1.27414 2.79373,-2.84576v-4.0097c0.84572,-0.76396 1.33507,-1.85348 1.33667,-3.06448z" fill="#000000" fill-opacity="0.2"></path></g><path d="M19.86064,27.6011c-1.94618,0.31932 -3.80722,0.95987 -5.58563,1.90413v-2.0866c0,-10.14538 8.1625,-18.39839 18.19233,-18.39839c10.02949,0 18.19839,8.25301 18.19839,18.39839v2.0866c-1.77589,-0.94258 -3.63602,-1.58482 -5.58609,-1.90413v-0.18247c0,-7.02448 -5.66654,-12.73856 -12.6091,-12.73856c-6.94187,0 -12.6099,5.71528 -12.6099,12.73856zM51.9445,55.42677c-0.26665,0.26458 -13.03997,13.13039 -17.74521,17.86443c-0.47436,0.47705 -1.09451,0.7157 -1.7165,0.7157c-0.62199,0 -1.24317,-0.23865 -1.71616,-0.7157c-4.7049,-4.73621 -17.47993,-17.59985 -17.74658,-17.86443c-5.38376,-5.44687 -5.38376,-14.28209 0,-19.72655c2.69405,-2.72403 6.22261,-4.08509 9.75185,-4.08509c3.51173,0 7.02278,1.35049 9.70985,4.04547c2.6881,-2.69498 6.19926,-4.04547 9.71088,-4.04547c3.52638,0 7.05574,1.36106 9.75082,4.08509c5.38353,5.44446 5.38353,14.27968 0.00103,19.72655zM36.60094,54.13918c0,-2.30988 -1.83598,-4.18016 -4.11816,-4.18016c-2.28321,0 -4.1312,1.87028 -4.1312,4.18016c0,1.211 0.47997,2.30268 1.32523,3.06448v4.0097c0,1.57305 1.24203,2.84576 2.79373,2.84576c1.55056,0 2.79373,-1.27414 2.79373,-2.84576v-4.0097c0.84572,-0.76396 1.33507,-1.85348 1.33667,-3.06448z" fill="#ffffff" fill-opacity="1"></path><path d="M19.86064,27.6011c-1.94618,0.31932 -3.80722,0.95987 -5.58563,1.90413v-2.0866c0,-10.14538 8.1625,-18.39839 18.19233,-18.39839c10.02949,0 18.19839,8.25301 18.19839,18.39839v2.0866c-1.77589,-0.94258 -3.63602,-1.58482 -5.58609,-1.90413v-0.18247c0,-7.02448 -5.66654,-12.73856 -12.6091,-12.73856c-6.94187,0 -12.6099,5.71528 -12.6099,12.73856zM51.9445,55.42677c-0.26665,0.26458 -13.03997,13.13039 -17.74521,17.86443c-0.47436,0.47705 -1.09451,0.7157 -1.7165,0.7157c-0.62199,0 -1.24317,-0.23865 -1.71616,-0.7157c-4.7049,-4.73621 -17.47993,-17.59985 -17.74658,-17.86443c-5.38376,-5.44687 -5.38376,-14.28209 0,-19.72655c2.69405,-2.72403 6.22261,-4.08509 9.75185,-4.08509c3.51173,0 7.02278,1.35049 9.70985,4.04547c2.6881,-2.69498 6.19926,-4.04547 9.71088,-4.04547c3.52638,0 7.05574,1.36106 9.75082,4.08509c5.38353,5.44446 5.38353,14.27968 0.00103,19.72655zM36.60094,54.13918c0,-2.30988 -1.83598,-4.18016 -4.11816,-4.18016c-2.28321,0 -4.1312,1.87028 -4.1312,4.18016c0,1.211 0.47997,2.30268 1.32523,3.06448v4.0097c0,1.57305 1.24203,2.84576 2.79373,2.84576c1.55056,0 2.79373,-1.27414 2.79373,-2.84576v-4.0097c0.84572,-0.76396 1.33507,-1.85348 1.33667,-3.06448z" fill-opacity="0" fill="#ffffff" stroke-linejoin="round" stroke-linecap="round" stroke-opacity="0.27" stroke="#c1c1c1" stroke-miterlimit="50" stroke-width="12" clip-path="url(&quot;#ClipPath1087&quot;)"></path></g></g></svg>