<svg xmlns="http://www.w3.org/2000/svg" width="41" height="42" viewBox="0 0 41 42"><g><g><path fill="#c1c1c1" d="M40.938 36.746c.015.534-.19 1.05-.568 1.428l-2.43 2.429c-.753.782-2.12.743-2.825-.081L25.15 29.355a16.397 16.397 0 0 0 3.962-3.959l11.178 9.957c.399.356.633.86.65 1.393zM15.8 31.342C7.364 31.342.5 24.485.5 16.056.5 7.628 7.364.77 15.8.77c8.437 0 15.3 6.858 15.3 15.286 0 8.43-6.863 15.286-15.3 15.286zm11.658-15.286c0-6.421-5.23-11.646-11.658-11.646-6.427 0-11.657 5.225-11.657 11.646 0 6.422 5.23 11.647 11.657 11.647 6.428 0 11.658-5.225 11.658-11.647zm-4.21-1.132v2.265c0 .803-.653 1.455-1.457 1.455h-3.4v3.397c0 .804-.653 1.455-1.457 1.456h-2.267a1.458 1.458 0 0 1-1.457-1.456v-3.397h-3.4a1.458 1.458 0 0 1-1.458-1.455v-2.265a1.459 1.459 0 0 1 1.458-1.456h3.4v-3.397c0-.803.653-1.454 1.457-1.455h2.267a1.458 1.458 0 0 1 1.457 1.455v3.397h3.4a1.458 1.458 0 0 1 1.457 1.456z"/></g></g></svg>