<svg xmlns="http://www.w3.org/2000/svg" width="33" height="42" viewBox="0 0 33 42"><defs><mask id="ulyxb" width="2" height="2" x="-1" y="-1"><path fill="#fff" d="M6 5h22v28H6z"/><path d="M28 19L8 31.728V32h-.428l-1.573 1V5zM8 29.667L24 19 8 8.333z"/></mask><filter id="ulyxa" width="56.2" height="66" x="-11.2" y="-12" filterUnits="userSpaceOnUse"><feOffset dx="-.2" dy="4" in="SourceGraphic" result="FeOffset2415Out"/><feGaussianBlur in="FeOffset2415Out" result="FeGaussianBlur2416Out" stdDeviation="2.8 2.8"/></filter><clipPath id="ulyxc"><path fill="#fff" d="M1 38V0h32v38zM6 5v28l1.572-1H8v-.272L28 19zm2 3.333L24 19 8 29.667z"/></clipPath></defs><g><g><g filter="url(#ulyxa)"><path fill="none" d="M28 19L8 31.728V32h-.428l-1.573 1V5zM8 29.667L24 19 8 8.333z" mask="url(&quot;#ulyxb&quot;)"/><path fill-opacity=".2" d="M28 19L8 31.728V32h-.428l-1.573 1V5zM8 29.667L24 19 8 8.333z"/></g><path fill="#fff" d="M28 19L8 31.728V32h-.428l-1.573 1V5zM8 29.667L24 19 8 8.333z"/><path fill="none" stroke="#c1c1c1" stroke-linecap="round" stroke-linejoin="round" stroke-miterlimit="50" stroke-opacity=".27" stroke-width="10" d="M28 19L8 31.728V32h-.428l-1.573 1V5zM8 29.667L24 19 8 8.333z" clip-path="url(&quot;#ulyxc&quot;)"/></g></g></svg>