<svg version="1.1" xmlns="http://www.w3.org/2000/svg" xmlns:xlink="http://www.w3.org/1999/xlink" x="0px" y="0px"
	 width="546.33px" height="167.068px" viewBox="0 0 546.33 167.068" enable-background="new 0 0 546.33 167.068"
	 xml:space="preserve">
<g id="clipspool_1_" enable-background="new    ">
	<g id="clipspool">
		<g>
			<path fill="#191B25" d="M196.855,78.94c1.069-1.216,2.329-2.161,3.779-2.835s2.995-1.011,4.636-1.011
				c1.171,0,2.314,0.176,3.428,0.527c1.113,0.352,2.146,0.864,3.098,1.538c0.952,0.674,1.809,1.502,2.571,2.483
				c0.761,0.981,1.362,2.087,1.802,3.317l8.789-8.833c-1.055-1.787-2.307-3.369-3.757-4.746s-3.032-2.541-4.746-3.494
				c-1.714-0.951-3.516-1.677-5.405-2.175s-3.816-0.747-5.779-0.747c-3.311,0-6.424,0.674-9.338,2.021
				c-2.916,1.348-5.464,3.186-7.646,5.516c-2.183,2.328-3.904,5.061-5.164,8.195c-1.26,3.135-1.89,6.504-1.89,10.107
				c0,3.311,0.629,6.416,1.89,9.316c1.259,2.9,2.98,5.435,5.164,7.603c2.182,2.168,4.731,3.875,7.646,5.12
				c2.915,1.244,6.027,1.867,9.338,1.867c1.962,0,3.874-0.228,5.735-0.682c1.86-0.453,3.632-1.12,5.317-1.999
				c1.684-0.879,3.252-1.948,4.702-3.208s2.731-2.681,3.845-4.263l-8.789-8.833c-0.469,1.055-1.077,2.015-1.824,2.879
				s-1.597,1.597-2.549,2.197c-0.953,0.601-1.971,1.062-3.054,1.384c-1.084,0.322-2.212,0.483-3.384,0.483
				c-1.641,0-3.186-0.308-4.636-0.923s-2.71-1.465-3.779-2.549c-1.07-1.084-1.912-2.344-2.527-3.779s-0.923-2.974-0.923-4.614
				c0-2.021,0.308-3.867,0.923-5.537S195.786,80.156,196.855,78.94z M230.803,111.833h12.085V46.047h-12.085V111.833z
				 M252.029,111.833h12.085V64.768h-12.085V111.833z M263.806,46.333c-0.733-0.718-1.59-1.289-2.571-1.714
				c-0.982-0.425-2.029-0.638-3.142-0.638c-1.114,0-2.161,0.213-3.142,0.638c-0.982,0.425-1.832,0.996-2.549,1.714
				c-0.718,0.718-1.29,1.567-1.714,2.549c-0.425,0.981-0.637,2.014-0.637,3.098c0,1.113,0.212,2.153,0.637,3.12
				c0.424,0.967,0.996,1.81,1.714,2.526c0.717,0.719,1.567,1.29,2.549,1.715c0.981,0.425,2.028,0.637,3.142,0.637
				c1.113,0,2.16-0.212,3.142-0.637c0.981-0.425,1.838-0.996,2.571-1.715c0.732-0.717,1.311-1.56,1.736-2.526
				c0.424-0.967,0.637-2.007,0.637-3.12c0-1.084-0.213-2.116-0.637-3.098C265.117,47.9,264.538,47.051,263.806,46.333z
				 M314.365,69.865c-2.184-2.168-4.732-3.845-7.646-5.032c-2.916-1.186-6.028-1.779-9.338-1.779c-1.524,0-3.033,0.19-4.527,0.571
				s-2.938,0.901-4.328,1.56c-1.393,0.66-2.732,1.443-4.021,2.352s-2.476,1.875-3.559,2.9l-4.791-5.669h-2.9v64.995h12.085v-21.094
				c0.907,0.527,1.852,1.04,2.834,1.538c0.98,0.498,1.978,0.944,2.988,1.341c1.011,0.395,2.035,0.71,3.076,0.944
				c1.039,0.234,2.088,0.352,3.143,0.352c3.31,0,6.422-0.571,9.338-1.714c2.914-1.143,5.463-2.791,7.646-4.943
				c2.182-2.154,3.903-4.775,5.164-7.867c1.259-3.09,1.889-6.569,1.889-10.437c0-3.721-0.63-7.111-1.889-10.173
				C318.269,74.648,316.547,72.033,314.365,69.865z M308.433,93.112c-0.63,1.582-1.487,2.93-2.571,4.043s-2.358,1.978-3.822,2.593
				c-1.466,0.615-3.019,0.923-4.658,0.923c-1.642,0-3.187-0.308-4.637-0.923s-2.718-1.479-3.801-2.593
				c-1.085-1.113-1.941-2.461-2.571-4.043s-0.944-3.325-0.944-5.229c0-1.992,0.314-3.779,0.944-5.361s1.486-2.923,2.571-4.021
				c1.083-1.1,2.351-1.941,3.801-2.527s2.995-0.879,4.637-0.879c1.64,0,3.192,0.293,4.658,0.879
				c1.464,0.586,2.738,1.428,3.822,2.527c1.084,1.098,1.941,2.438,2.571,4.021s0.944,3.369,0.944,5.361
				C309.377,89.787,309.062,91.53,308.433,93.112z M364.441,86.784c-1.349-1.23-2.931-2.189-4.746-2.879
				c-1.817-0.688-3.751-1.032-5.801-1.032h-12.48c-0.821,0-1.524-0.3-2.109-0.9c-0.587-0.601-0.879-1.326-0.879-2.176
				c0-0.82,0.292-1.523,0.879-2.109c0.585-0.586,1.288-0.879,2.109-0.879h24.301V64.855h-24.301c-2.081,0-4.029,0.389-5.846,1.165
				s-3.398,1.838-4.746,3.186s-2.41,2.93-3.186,4.746c-0.777,1.816-1.164,3.765-1.164,5.845s0.387,4.028,1.164,5.845
				c0.775,1.816,1.838,3.406,3.186,4.768c1.348,1.363,2.93,2.439,4.746,3.23s3.765,1.187,5.846,1.187h12.48
				c0.819,0,1.522,0.132,2.109,0.396c0.585,0.264,0.879,0.82,0.879,1.67c0,0.82-0.294,1.523-0.879,2.109
				c-0.587,0.586-1.29,0.879-2.109,0.879h-27.422v11.953h27.422c2.05,0,3.983-0.388,5.801-1.164
				c1.815-0.776,3.397-1.846,4.746-3.209c1.347-1.362,2.416-2.943,3.207-4.745s1.188-3.743,1.188-5.823
				c0-2.051-0.396-3.94-1.188-5.669S365.788,88.015,364.441,86.784z M416.318,69.865c-2.184-2.168-4.732-3.845-7.646-5.032
				c-2.916-1.186-6.028-1.779-9.338-1.779c-1.524,0-3.033,0.19-4.527,0.571s-2.938,0.901-4.328,1.56
				c-1.393,0.66-2.732,1.443-4.021,2.352s-2.476,1.875-3.559,2.9l-4.791-5.669h-2.9v64.995h12.086v-21.094
				c0.907,0.527,1.852,1.04,2.834,1.538c0.98,0.498,1.978,0.944,2.988,1.341c1.011,0.395,2.035,0.71,3.076,0.944
				c1.039,0.234,2.088,0.352,3.143,0.352c3.31,0,6.422-0.571,9.338-1.714c2.914-1.143,5.463-2.791,7.646-4.943
				c2.182-2.154,3.903-4.775,5.164-7.867c1.259-3.09,1.889-6.569,1.889-10.437c0-3.721-0.63-7.111-1.889-10.173
				C420.222,74.648,418.5,72.033,416.318,69.865z M410.386,93.112c-0.63,1.582-1.487,2.93-2.571,4.043s-2.358,1.978-3.822,2.593
				c-1.466,0.615-3.019,0.923-4.658,0.923c-1.642,0-3.187-0.308-4.637-0.923s-2.718-1.479-3.801-2.593
				c-1.085-1.113-1.941-2.461-2.571-4.043s-0.944-3.325-0.944-5.229c0-1.992,0.314-3.779,0.944-5.361s1.486-2.923,2.571-4.021
				c1.083-1.1,2.351-1.941,3.801-2.527s2.995-0.879,4.637-0.879c1.64,0,3.192,0.293,4.658,0.879
				c1.464,0.586,2.738,1.428,3.822,2.527c1.084,1.098,1.941,2.438,2.571,4.021s0.944,3.369,0.944,5.361
				C411.33,89.787,411.016,91.53,410.386,93.112z M468.459,69.8c-2.168-2.183-4.709-3.867-7.624-5.055
				c-2.916-1.187-6.042-1.779-9.382-1.779c-3.312,0-6.424,0.63-9.339,1.89s-5.464,2.996-7.646,5.208s-3.904,4.841-5.163,7.888
				c-1.261,3.047-1.891,6.357-1.891,9.932c0,3.516,0.63,6.79,1.891,9.821c1.259,3.033,2.98,5.655,5.163,7.867
				s4.731,3.955,7.646,5.229s6.027,1.911,9.339,1.911c3.34,0,6.466-0.637,9.382-1.911c2.915-1.274,5.456-3.018,7.624-5.229
				s3.882-4.834,5.142-7.867c1.26-3.031,1.89-6.306,1.89-9.821c0-3.75-0.63-7.155-1.89-10.218
				C472.341,74.604,470.627,71.982,468.459,69.8z M462.461,93.112c-0.631,1.582-1.487,2.93-2.571,4.043s-2.351,1.978-3.801,2.593
				s-2.996,0.923-4.636,0.923c-1.642,0-3.187-0.33-4.637-0.988c-1.45-0.66-2.711-1.561-3.779-2.703
				c-1.07-1.143-1.912-2.49-2.527-4.043s-0.922-3.237-0.922-5.054c0-1.934,0.307-3.684,0.922-5.251s1.457-2.915,2.527-4.043
				c1.068-1.128,2.329-1.992,3.779-2.594c1.45-0.6,2.995-0.9,4.637-0.9c1.64,0,3.186,0.301,4.636,0.9
				c1.45,0.602,2.717,1.466,3.801,2.594s1.94,2.476,2.571,4.043c0.63,1.567,0.944,3.317,0.944,5.251
				C463.405,89.787,463.091,91.53,462.461,93.112z M520.578,69.8c-2.168-2.183-4.709-3.867-7.624-5.055
				c-2.916-1.187-6.043-1.779-9.383-1.779c-3.311,0-6.423,0.63-9.338,1.89c-2.916,1.26-5.465,2.996-7.646,5.208
				c-2.183,2.212-3.904,4.841-5.164,7.888s-1.89,6.357-1.89,9.932c0,3.516,0.63,6.79,1.89,9.821c1.26,3.033,2.981,5.655,5.164,7.867
				c2.182,2.212,4.73,3.955,7.646,5.229c2.915,1.274,6.027,1.911,9.338,1.911c3.34,0,6.467-0.637,9.383-1.911
				c2.915-1.274,5.456-3.018,7.624-5.229s3.882-4.834,5.142-7.867c1.26-3.031,1.89-6.306,1.89-9.821c0-3.75-0.63-7.155-1.89-10.218
				C524.46,74.604,522.746,71.982,520.578,69.8z M514.58,93.112c-0.631,1.582-1.487,2.93-2.571,4.043s-2.351,1.978-3.801,2.593
				s-2.996,0.923-4.637,0.923s-3.186-0.33-4.636-0.988c-1.45-0.66-2.71-1.561-3.779-2.703c-1.07-1.143-1.912-2.49-2.527-4.043
				s-0.923-3.237-0.923-5.054c0-1.934,0.308-3.684,0.923-5.251s1.457-2.915,2.527-4.043c1.069-1.128,2.329-1.992,3.779-2.594
				c1.45-0.6,2.995-0.9,4.636-0.9s3.187,0.301,4.637,0.9c1.45,0.602,2.717,1.466,3.801,2.594s1.94,2.476,2.571,4.043
				c0.63,1.567,0.944,3.317,0.944,5.251C515.524,89.787,515.21,91.53,514.58,93.112z M534.245,46.047v65.786h12.085V46.047H534.245z
				"/>
		</g>
	</g>
</g>
<g id="Shape_1_1_" enable-background="new    ">
	<g id="Shape_1">
		<g>
			<linearGradient id="SVGID_1_" gradientUnits="userSpaceOnUse" x1="93.7534" y1="153.7734" x2="45.9292" y2="-2.6524">
				<stop  offset="0" style="stop-color:#3567DF"/>
				<stop  offset="0.5" style="stop-color:#2390EF"/>
				<stop  offset="1" style="stop-color:#09D3FF"/>
			</linearGradient>
			<path fill="url(#SVGID_1_)" d="M135.424,46.209L66.015,6.06C36.758-10.906,0.047,9.735,0.047,43.382v80.581
				c-0.287,33.365,36.711,54.009,65.968,37.041l69.409-40.433C164.105,103.889,164.105,62.892,135.424,46.209z"/>
		</g>
	</g>
</g>
<g id="Shape_2_copy_1_" enable-background="new    ">
	<g id="Shape_2_copy">
		<g>
			<path fill="#085BB7" d="M66,7.009c0,0-4.563,51.829-28,82c-16.595,21.363-38,24-38,24v12c0,0,47.895-3.312,59-23
				C75.708,72.389,66,7.009,66,7.009z"/>
		</g>
	</g>
</g>
<g id="Shape_2_1_" enable-background="new    ">
	<g id="Shape_2">
		<g>
			<path fill="#0D54A3" d="M66,7.009c0,0-6.77,73.796-35,99c-20.819,18.587-31,17-31,17s42.714,7.87,59-21
				C75.708,72.389,66,7.009,66,7.009z"/>
		</g>
	</g>
</g>
<g id="Shape_1_copy_4_1_" enable-background="new    ">
	<g id="Shape_1_copy_4">
		<g>
			<linearGradient id="SVGID_2_" gradientUnits="userSpaceOnUse" x1="96.918" y1="122.3584" x2="21.3878" y2="67.4826">
				<stop  offset="0" style="stop-color:#3567DF"/>
				<stop  offset="0.5" style="stop-color:#2390EF"/>
				<stop  offset="1" style="stop-color:#09D3FF"/>
			</linearGradient>
			<path fill="url(#SVGID_2_)" d="M66.015,6.06c0,0,0.154,38.294-17.649,75.714c-21.058,44.262-48.319,42.189-48.319,42.189
				c-0.287,33.365,36.711,54.009,65.968,37.041c0,0,40-37.784,40-76.035C106.015,45.76,66.015,6.06,66.015,6.06z"/>
		</g>
	</g>
</g>
<g id="Shape_1_copy_3_1_" enable-background="new    ">
	<g id="Shape_1_copy_3">
		<g>
			<path fill="#0745AB" d="M135.424,46.209L66.015,6.06c0,0,23,38.707,23,77.429c0,38.751-23,77.516-23,77.516l69.409-40.433
				C164.105,103.889,164.105,62.892,135.424,46.209z"/>
		</g>
	</g>
</g>
<g id="Shape_1_copy_2_1_" enable-background="new    ">
	<g id="Shape_1_copy_2">
		<g>
			<path fill="#1D5AC1" d="M135.424,46.209L66.015,6.06c0,0,33,38.598,33,77.265c0,38.806-33,77.68-33,77.68l69.409-40.433
				C164.105,103.889,164.105,62.892,135.424,46.209z"/>
		</g>
	</g>
</g>
<g id="Shape_1_copy_1_" enable-background="new    ">
	<g id="Shape_1_copy">
		<g>
			<path fill="#09D3FF" d="M136.424,46.209L67.015,6.06c0,0,38,39.115,38,78.04c0,38.546-38,76.904-38,76.904l69.409-40.433
				C165.105,103.889,165.105,62.892,136.424,46.209z"/>
		</g>
	</g>
</g>
</svg>
